# xmcd
#
# Track frame offsets:
# 182
# 19062
# 32620
# 48382
# 62520
# 76367
# 91562
# 105732
# 119290
# 135892
# 152110
# 166272
#
# Disc length: 2434 seconds
#
#
# Revision: 0
# Processed by: cddbd v1.5.1PL2 Copyright (c) Steve Scherf et al.
# Submitted via: FreeRIP 2.90 
#
DISCID=8309800c
DTITLE=Negro Videla - Complices
DYEAR=1900
DGENRE=Cuarteto
TTITLE0=El cantinero
TTITLE1=Bomba
TTITLE2=Como camina maria
TTITLE3=Debo hacerlo todo
TTITLE4=Un poquito de sabor
TTITLE5=Y vendras
TTITLE6=No te quiero
TTITLE7=Por ella
TTITLE8=Caricatura
TTITLE9=Pisa el acelerador
TTITLE10=Hombre
TTITLE11=Hemos
EXTD=
EXTT0=
EXTT1=
EXTT2=
EXTT3=
EXTT4=
EXTT5=
EXTT6=
EXTT7=
EXTT8=
EXTT9=
EXTT10=
EXTT11=
PLAYORDER=
